<?xml version="1.0" encoding="UTF-8"?>
<svg width="700pt" height="700pt" version="1.1" viewBox="0 0 700 700" xmlns="http://www.w3.org/2000/svg" xmlns:xlink="http://www.w3.org/1999/xlink">
 <g>
  <path fill="#1c1a27" d="m518.48 235.21c-3 0-6.0273 0.15625-9.1328 0.46484-7.5508-60.027-58.805-105.93-120.09-105.93-48.379 0-92.035 29.035-111.11 73.047-12.215-5.0703-25.098-7.6367-38.398-7.6367-50.355 0-93.199 37.906-99.91 87.285-32.676 8.7109-55.84 38.391-55.84 72.609 0 41.469 33.734 75.203 75.199 75.203h359.28c53.777 0 97.523-43.75 97.523-97.523 0-53.773-43.746-97.52-97.523-97.52zm0 179.96h-359.28c-33.152 0-60.121-26.973-60.121-60.125 0-28.867 20.637-53.695 49.07-59.039 3.3438-0.62891 5.8516-3.4219 6.125-6.8164 3.5117-44.273 41.055-78.957 85.477-78.957 13.652 0 26.793 3.1836 39.047 9.4688 1.9297 0.98438 4.2031 1.0977 6.2227 0.29688 2.0195-0.80078 3.5977-2.4375 4.3203-4.4883 14.996-42.277 55.148-70.688 99.914-70.688 56.039 0 102.51 43.863 105.78 99.855 0.12891 2.1523 1.168 4.1445 2.8594 5.4766 1.6953 1.3359 3.8789 1.8789 5.9961 1.5039 5.1602-0.92187 9.9336-1.3711 14.586-1.3711 45.465 0 82.445 36.984 82.445 82.441s-36.98 82.441-82.445 82.441z"/>
  <use x="70" y="644" xlink:href="#r"/>
  <use x="90.550781" y="644" xlink:href="#c"/>
  <use x="104.359375" y="644" xlink:href="#a"/>
  <use x="123.347656" y="644" xlink:href="#b"/>
  <use x="142.242188" y="644" xlink:href="#f"/>
  <use x="155.628906" y="644" xlink:href="#a"/>
  <use x="174.617188" y="644" xlink:href="#h"/>
  <use x="204.410156" y="644" xlink:href="#j"/>
  <use x="224.453125" y="644" xlink:href="#g"/>
  <use x="252.453125" y="644" xlink:href="#a"/>
  <use x="271.441406" y="644" xlink:href="#h"/>
  <use x="291.484375" y="644" xlink:href="#g"/>
  <use x="309.734375" y="644" xlink:href="#e"/>
  <use x="339.417969" y="644" xlink:href="#b"/>
  <use x="358.3125" y="644" xlink:href="#c"/>
  <use x="372.121094" y="644" xlink:href="#d"/>
  <use x="391.359375" y="644" xlink:href="#i"/>
  <use x="403.539062" y="644" xlink:href="#b"/>
  <use x="422.433594" y="644" xlink:href="#b"/>
  <use x="441.328125" y="644" xlink:href="#e"/>
  <use x="70" y="672" xlink:href="#i"/>
  <use x="82.183594" y="672" xlink:href="#c"/>
  <use x="95.992188" y="672" xlink:href="#d"/>
  <use x="115.226562" y="672" xlink:href="#q"/>
  <use x="154.152344" y="672" xlink:href="#f"/>
  <use x="167.535156" y="672" xlink:href="#e"/>
  <use x="187.46875" y="672" xlink:href="#a"/>
  <use x="216.207031" y="672" xlink:href="#p"/>
  <use x="239.640625" y="672" xlink:href="#d"/>
  <use x="258.878906" y="672" xlink:href="#o"/>
  <use x="278.8125" y="672" xlink:href="#n"/>
  <use x="308.492188" y="672" xlink:href="#m"/>
  <use x="329.015625" y="672" xlink:href="#c"/>
  <use x="342.820312" y="672" xlink:href="#d"/>
  <use x="362.058594" y="672" xlink:href="#l"/>
  <use x="371.65625" y="672" xlink:href="#a"/>
  <use x="390.648438" y="672" xlink:href="#k"/>
  <use x="407.242188" y="672" xlink:href="#f"/>
 </g>
</svg>
