<?xml version="1.0" encoding="UTF-8"?>
<svg width="700pt" height="700pt" version="1.1" viewBox="0 0 700 700" xmlns="http://www.w3.org/2000/svg" xmlns:xlink="http://www.w3.org/1999/xlink">
 <g>
  <path fill="#1c1a27" d="m554.4 74.48h-408.8c-24.641 0-44.801 19.039-47.039 43.121 0 1.6797-0.55859 2.8008-0.55859 4.4805v250.32c0 26.32 21.281 47.602 47.602 47.602h408.8c24.641 0 44.801-19.039 47.039-43.121 0-1.6797 0.55859-2.8008 0.55859-4.4805v-250.32c0-26.316-21.281-47.598-47.602-47.598zm-20.16 321.44h-372.4c-22.398 0-40.879-18.48-40.879-40.879v-215.04c0-22.398 21.84-40.879 44.238-40.879h372.4c22.398 0 40.879 18.48 40.879 40.879v215.04c0.5625 22.402-21.277 40.883-44.238 40.883z"/>
  <path fill="#1c1a27" d="m454.72 443.52h-209.44c-6.1602 0-11.762 5.0391-11.762 11.762v23.52c0 6.1602 5.0391 11.762 11.762 11.762h210c6.1602 0 11.762-5.0391 11.762-11.762v-23.52c-0.5625-6.1602-5.6016-11.762-12.324-11.762z"/>
  <path fill="#1c1a27" d="m288.4 325.36c-2.2383 2.2383-5.0391 2.2383-7.2812 0l-72.801-72.801c-2.2383-2.2383-2.2383-5.0391 0-7.2812l72.801-72.801c2.2383-2.2383 5.0391-2.2383 7.2812 0l7.8398 7.8398c2.2383 2.2383 2.2383 5.0391 0 7.2812l-61.602 61.602 61.602 61.602c2.2383 2.2383 2.2383 5.0391 0 7.2812zm42 26.879c-0.55859 2.8008-3.3594 4.4805-6.1602 3.3594l-9.5195-2.8008c-2.8008-0.55859-4.4805-3.3594-3.3594-6.1602l58.238-201.6c0.55859-2.8008 3.3594-4.4805 6.1602-3.3594l9.5195 2.8008c2.8008 0.55859 3.9219 3.3594 3.3594 6.1602zm88.48-26.879c-2.2383 2.2383-5.0391 2.2383-7.2812 0l-7.8398-7.8398c-2.2383-2.2383-2.2383-5.0391 0-7.2812l61.602-61.602-61.602-61.602c-2.2383-2.2383-2.2383-5.0391 0-7.2812l7.8398-7.8398c2.2383-2.2383 5.0391-2.2383 7.2812 0l72.801 72.801c2.2383 2.2383 2.2383 5.0391 0 7.2812z"/>
  <use x="70" y="644" xlink:href="#y"/>
  <use x="90.550781" y="644" xlink:href="#b"/>
  <use x="104.359375" y="644" xlink:href="#a"/>
  <use x="123.347656" y="644" xlink:href="#e"/>
  <use x="142.242188" y="644" xlink:href="#d"/>
  <use x="155.628906" y="644" xlink:href="#a"/>
  <use x="174.617188" y="644" xlink:href="#n"/>
  <use x="204.410156" y="644" xlink:href="#m"/>
  <use x="224.453125" y="644" xlink:href="#l"/>
  <use x="252.453125" y="644" xlink:href="#k"/>
  <use x="275.882812" y="644" xlink:href="#e"/>
  <use x="294.78125" y="644" xlink:href="#g"/>
  <use x="314.710938" y="644" xlink:href="#j"/>
  <use x="341.125" y="644" xlink:href="#i"/>
  <use x="361.648438" y="644" xlink:href="#e"/>
  <use x="380.542969" y="644" xlink:href="#f"/>
  <use x="400.476562" y="644" xlink:href="#h"/>
  <use x="419.820312" y="644" xlink:href="#x"/>
  <use x="447.6875" y="644" xlink:href="#w"/>
  <use x="466.921875" y="644" xlink:href="#j"/>
  <use x="483.585937" y="644" xlink:href="#h"/>
  <use x="502.933594" y="644" xlink:href="#v"/>
  <use x="513.351562" y="644" xlink:href="#f"/>
  <use x="533.285156" y="644" xlink:href="#g"/>
  <use x="553.21875" y="644" xlink:href="#u"/>
  <use x="562.816406" y="644" xlink:href="#c"/>
  <use x="582.054687" y="644" xlink:href="#b"/>
  <use x="70" y="672" xlink:href="#t"/>
  <use x="82.183594" y="672" xlink:href="#b"/>
  <use x="95.992188" y="672" xlink:href="#c"/>
  <use x="115.226562" y="672" xlink:href="#s"/>
  <use x="154.152344" y="672" xlink:href="#d"/>
  <use x="167.535156" y="672" xlink:href="#r"/>
  <use x="187.46875" y="672" xlink:href="#a"/>
  <use x="216.207031" y="672" xlink:href="#q"/>
  <use x="239.640625" y="672" xlink:href="#c"/>
  <use x="258.878906" y="672" xlink:href="#f"/>
  <use x="278.8125" y="672" xlink:href="#g"/>
  <use x="308.492188" y="672" xlink:href="#i"/>
  <use x="329.015625" y="672" xlink:href="#b"/>
  <use x="342.820312" y="672" xlink:href="#c"/>
  <use x="362.058594" y="672" xlink:href="#p"/>
  <use x="371.65625" y="672" xlink:href="#a"/>
  <use x="390.648438" y="672" xlink:href="#o"/>
  <use x="407.242188" y="672" xlink:href="#d"/>
 </g>
</svg>
