<?xml version="1.0" encoding="UTF-8"?>
<svg width="700pt" height="700pt" version="1.1" viewBox="0 0 700 700" xmlns="http://www.w3.org/2000/svg" xmlns:xlink="http://www.w3.org/1999/xlink">
 <g>
  <path fill="#1c1a27" d="m192.5 52.5h17.5v17.5h-17.5z"/>
  <path fill="#1c1a27" d="m227.5 52.5h17.5v17.5h-17.5z"/>
  <path fill="#1c1a27" d="m262.5 52.5h17.5v17.5h-17.5z"/>
  <path fill="#1c1a27" d="m96.25 542.5h271.25c3.5391 0 6.7266-2.1328 8.082-5.4023 1.3555-3.2695 0.60547-7.0312-1.8945-9.5352l-271.25-271.25c-2.5039-2.5-6.2656-3.25-9.5352-1.8945-3.2695 1.3555-5.4023 4.543-5.4023 8.082v271.25c0 2.3203 0.92188 4.5469 2.5625 6.1875s3.8672 2.5625 6.1875 2.5625zm8.75-258.88 241.38 241.38h-241.38z"/>
  <path fill="#1c1a27" d="m242.44 475.06-87.5-87.5c-2.5039-2.5-6.2656-3.25-9.5352-1.8945-3.2695 1.3555-5.4023 4.543-5.4023 8.082v87.5c0 2.3203 0.92188 4.5469 2.5625 6.1875s3.8672 2.5625 6.1875 2.5625h87.5c3.5391 0 6.7266-2.1328 8.082-5.4023 1.3555-3.2695 0.60547-7.0312-1.8945-9.5352zm-84.938-2.5625v-57.629l57.629 57.629z"/>
  <path fill="#1c1a27" d="m602.68 92.191c8.4609-8.4648 11.766-20.797 8.668-32.359-3.0977-11.559-12.125-20.586-23.684-23.684-11.562-3.0977-23.895 0.20703-32.359 8.668l-13.125 13.125c-0.8125-10.973-5.7383-21.234-13.789-28.73-8.0547-7.5-18.641-11.68-29.645-11.711h-297.5c-11.598 0.015625-22.719 4.6289-30.922 12.828-8.1992 8.2031-12.812 19.324-12.828 30.922v227.5h17.5v-227.5c0-6.9609 2.7656-13.641 7.6875-18.562s11.602-7.6875 18.562-7.6875h297.5c6.9609 0 13.641 2.7656 18.562 7.6875s7.6875 11.602 7.6875 18.562v13.879l-82.371 82.371h-64.312c-8.3516-21.379-24.07-39.07-44.32-49.875-20.25-10.809-43.695-14.02-66.105-9.0547-22.41 4.9688-42.305 17.781-56.098 36.129-13.789 18.348-20.566 41.023-19.102 63.93 1.4609 22.906 11.062 44.535 27.074 60.98s37.375 26.629 60.234 28.703v35.438c0 2.3203 0.92188 4.5469 2.5625 6.1875s3.8672 2.5625 6.1875 2.5625h192.5c2.3203 0 4.5469-0.92188 6.1875-2.5625s2.5625-3.8672 2.5625-6.1875v-118.88l35-35v180.13h-201.25c-4.832 0-8.75 3.918-8.75 8.75v70c0 2.3203 0.92188 4.5469 2.5625 6.1875s3.8672 2.5625 6.1875 2.5625h201.25v8.75c0 6.9609-2.7656 13.641-7.6875 18.562s-11.602 7.6875-18.562 7.6875h-140v17.5h140c11.598-0.015625 22.719-4.6289 30.922-12.828 8.1992-8.2031 12.812-19.324 12.828-30.922v-8.75h61.25c2.3203 0 4.5469-0.92188 6.1875-2.5625s2.5625-3.8672 2.5625-6.1875v-70c0-2.3203-0.92188-4.5469-2.5625-6.1875s-3.8672-2.5625-6.1875-2.5625h-61.25v-197.63zm-35-35c2.9766-3.1094 7.0781-4.8867 11.383-4.9336 4.3047-0.046874 8.4453 1.6445 11.488 4.6875 3.043 3.043 4.7344 7.1836 4.6875 11.488-0.046876 4.3047-1.8242 8.4062-4.9336 11.383l-4.0586 4.0625-22.629-22.629zm-200.18 135.31c-0.027344 19.359-7.1758 38.035-20.086 52.461-12.91 14.43-30.676 23.602-49.914 25.773v-95.734h67.969c1.332 5.7383 2.0117 11.609 2.0312 17.5zm-87.5-26.25v104.48c-27.645-3.0469-51.633-20.445-63.109-45.777s-8.7422-54.84 7.1953-77.633c15.938-22.789 42.715-35.484 70.449-33.395 27.734 2.0898 52.309 18.648 64.652 43.57h-70.438c-4.832 0-8.75 3.918-8.75 8.75zm192.5 148.75h-175v-26.688c26.98-2.3594 51.703-16.023 68.055-37.613 16.352-21.59 22.809-49.09 17.773-75.699h41.797l-20.062 20.062c-1.2227 1.2188-2.0547 2.7773-2.3867 4.4727l-8.75 43.75c-0.51562 2.5703 0.15234 5.2344 1.8125 7.2617 1.6602 2.0273 4.1406 3.2031 6.7617 3.2031 0.58984 0.003906 1.1758-0.054688 1.75-0.17578l43.75-8.75c1.6953-0.33203 3.2539-1.1641 4.4727-2.3867l20.027-20.066zm-55.879-96.004 11.883 11.883-14.875 2.9648zm143.38 148.5v17.5h17.5v-17.5h17.5v52.5h-262.5v-52.5h17.5v17.5h17.5v-17.5h17.5v17.5h17.5v-17.5h17.5v17.5h17.5v-17.5h17.5v17.5h17.5v-17.5h17.5v17.5h17.5v-17.5h17.5v17.5h17.5v-17.5zm-113.75-143.62-22.629-22.629 127.63-127.63 22.629 22.629z"/>
  <use x="70" y="691.25" xlink:href="#m"/>
  <use x="102.109375" y="691.25" xlink:href="#i"/>
  <use x="123.683594" y="691.25" xlink:href="#a"/>
  <use x="153.355469" y="691.25" xlink:href="#h"/>
  <use x="182.878906" y="691.25" xlink:href="#g"/>
  <use x="203.792969" y="691.25" xlink:href="#a"/>
  <use x="233.464844" y="691.25" xlink:href="#f"/>
  <use x="280.011719" y="691.25" xlink:href="#e"/>
  <use x="311.328125" y="691.25" xlink:href="#d"/>
  <use x="355.078125" y="691.25" xlink:href="#c"/>
  <use x="400.667969" y="691.25" xlink:href="#l"/>
  <use x="430.722656" y="691.25" xlink:href="#k"/>
  <use x="461.871094" y="691.25" xlink:href="#b"/>
  <use x="490.964844" y="691.25" xlink:href="#j"/>
  <use x="505.960938" y="691.25" xlink:href="#b"/>
 </g>
</svg>
