<?xml version="1.0" encoding="UTF-8"?>
<svg width="700pt" height="700pt" version="1.1" viewBox="0 0 700 700" xmlns="http://www.w3.org/2000/svg" xmlns:xlink="http://www.w3.org/1999/xlink">
 <g>
  <path fill="#1c1a27" d="m417.51 205.03h-135.01c-4.125 0-7.4688 3.3438-7.4688 7.4688v135.01c0 4.125 3.3438 7.4688 7.4688 7.4688h135.01c4.125 0 7.4688-3.3438 7.4688-7.4688l-0.003906-135.01c0-4.125-3.3438-7.4688-7.4648-7.4688zm-7.4688 135.01h-120.08v-120.08h120.08z"/>
  <path fill="#1c1a27" d="m321.99 283.52c4.125 0 7.4688-3.3438 7.4688-7.4688v-16.594h25.805c4.125 0 7.4688-3.3438 7.4688-7.4688s-3.3438-7.4688-7.4688-7.4688h-33.273c-4.125 0-7.4688 3.3438-7.4688 7.4688v24.059c0 4.1289 3.3438 7.4727 7.4688 7.4727z"/>
  <path fill="#1c1a27" d="m321.99 315.48c4.125 0 7.4688-3.3438 7.4688-7.4688v-4.3086c0-4.125-3.3438-7.4688-7.4688-7.4688s-7.4688 3.3438-7.4688 7.4688v4.3086c0 4.125 3.3438 7.4688 7.4688 7.4688z"/>
  <path fill="#1c1a27" d="m608.53 472.18h-21.949l0.003907-161.21c0-4.125-3.3438-7.4688-7.4688-7.4688h-92.383v-46.992h42.801c4.125 0 7.4688-3.3438 7.4688-7.4688s-3.3438-7.4688-7.4688-7.4688l-42.801 0.003907v-47.004h58.258c4.125 0 7.4688-3.3438 7.4688-7.4688l-0.003907-92.598h25.336c4.125 0 7.4688-3.3438 7.4688-7.4688v-65.566c0-4.125-3.3438-7.4688-7.4648-7.4688h-65.566c-4.125 0-7.4688 3.3438-7.4688 7.4688v65.566c0 4.125 3.3438 7.4688 7.4688 7.4688h25.293v85.133h-50.789v-11.664c0-13.621-11.082-24.703-24.703-24.703l-158.39-0.003906v-36.113c16.387-3.4492 28.727-18.02 28.727-35.418 0-19.957-16.238-36.191-36.195-36.191s-36.191 16.238-36.191 36.191c0 17.398 12.34 31.965 28.727 35.418v36.113h-50.738c-13.621 0-24.703 11.082-24.703 24.703v11.684h-42.801c-4.125 0-7.4688 3.3438-7.4688 7.4688s3.3438 7.4688 7.4688 7.4688h42.801v46.977h-92.789v-169.54h14.078c4.125 0 7.4688-3.3438 7.4688-7.4688v-43.09c0-4.125-3.3438-7.4688-7.4688-7.4688h-43.09c-4.125 0.003906-7.4688 3.3477-7.4688 7.4727v43.09c0 4.125 3.3438 7.4688 7.4688 7.4688l14.074-0.003906v177.01c0 4.125 3.3438 7.4688 7.4688 7.4688h100.25v46.992h-42.801c-4.125 0-7.4688 3.3438-7.4688 7.4688s3.3438 7.4688 7.4688 7.4688h42.801v47h-73.941c-4.125 0-7.4688 3.3438-7.4688 7.4688l0.003906 62.414h-40.391c-4.125 0-7.4688 3.3438-7.4688 7.4688v95.75c0 4.125 3.3438 7.4688 7.4688 7.4688h95.754c4.125 0 7.4688-3.3438 7.4688-7.4688l-0.003906-95.75c0-4.125-3.3438-7.4688-7.4688-7.4688h-40.426v-54.945h66.473v11.664c0 13.621 11.082 24.703 24.703 24.703h158.39v36.113c-16.387 3.4492-28.727 18.02-28.727 35.418 0 19.957 16.238 36.191 36.191 36.191 19.957 0 36.195-16.238 36.195-36.191 0-17.398-12.34-31.965-28.727-35.418l0.003907-36.113h50.738c13.621 0 24.703-11.082 24.703-24.703v-11.684h42.801c4.125 0 7.4688-3.3438 7.4688-7.4688s-3.3438-7.4688-7.4688-7.4688h-42.801v-46.977h84.914v153.74h-22.004c-4.125 0-7.4688 3.3438-7.4688 7.4688v58.887c0 4.125 3.3438 7.4688 7.4688 7.4688h58.887c4.125 0 7.4688-3.3438 7.4688-7.4688v-58.887c0-4.125-3.3438-7.4688-7.4688-7.4688zm-88.832-392.61v-50.633h50.629v50.633zm-420.77-22.477v-28.156h28.152v28.152zm80.82 393.16v80.816h-80.82v-80.816zm95.164-378.51c0-11.719 9.5391-21.258 21.258-21.258s21.258 9.5391 21.258 21.258-9.5391 21.258-21.258 21.258-21.258-9.5391-21.258-21.258zm150.16 416.52c0 11.719-9.5391 21.258-21.258 21.258s-21.258-9.5391-21.258-21.258 9.5391-21.258 21.258-21.258c11.723 0 21.258 9.5391 21.258 21.258zm46.715-96.23c0 5.3867-4.3828 9.7695-9.7695 9.7695l-224.06-0.003906c-5.3867 0-9.7695-4.3828-9.7695-9.7695l0.003906-224.06c0-5.3867 4.3828-9.7695 9.7695-9.7695h224.06c5.3867 0 9.7695 4.3828 9.7695 9.7695zm129.27 139.04h-43.953v-43.953h43.953z"/>
  <use x="70" y="644" xlink:href="#i"/>
  <use x="90.550781" y="644" xlink:href="#b"/>
  <use x="104.359375" y="644" xlink:href="#a"/>
  <use x="123.347656" y="644" xlink:href="#e"/>
  <use x="142.242188" y="644" xlink:href="#d"/>
  <use x="155.628906" y="644" xlink:href="#a"/>
  <use x="174.617188" y="644" xlink:href="#l"/>
  <use x="204.410156" y="644" xlink:href="#k"/>
  <use x="224.453125" y="644" xlink:href="#g"/>
  <use x="252.453125" y="644" xlink:href="#j"/>
  <use x="280.3125" y="644" xlink:href="#e"/>
  <use x="299.210938" y="644" xlink:href="#b"/>
  <use x="313.015625" y="644" xlink:href="#u"/>
  <use x="322.617188" y="644" xlink:href="#h"/>
  <use x="339.28125" y="644" xlink:href="#h"/>
  <use x="355.945312" y="644" xlink:href="#e"/>
  <use x="384.589844" y="644" xlink:href="#i"/>
  <use x="405.140625" y="644" xlink:href="#c"/>
  <use x="424.375" y="644" xlink:href="#f"/>
  <use x="436.554687" y="644" xlink:href="#f"/>
  <use x="448.738281" y="644" xlink:href="#a"/>
  <use x="467.726562" y="644" xlink:href="#g"/>
  <use x="70" y="672" xlink:href="#f"/>
  <use x="82.183594" y="672" xlink:href="#b"/>
  <use x="95.992188" y="672" xlink:href="#c"/>
  <use x="115.226562" y="672" xlink:href="#t"/>
  <use x="154.152344" y="672" xlink:href="#d"/>
  <use x="167.535156" y="672" xlink:href="#s"/>
  <use x="187.46875" y="672" xlink:href="#a"/>
  <use x="216.207031" y="672" xlink:href="#r"/>
  <use x="239.640625" y="672" xlink:href="#c"/>
  <use x="258.878906" y="672" xlink:href="#q"/>
  <use x="278.8125" y="672" xlink:href="#p"/>
  <use x="308.492188" y="672" xlink:href="#o"/>
  <use x="329.015625" y="672" xlink:href="#b"/>
  <use x="342.820312" y="672" xlink:href="#c"/>
  <use x="362.058594" y="672" xlink:href="#n"/>
  <use x="371.65625" y="672" xlink:href="#a"/>
  <use x="390.648438" y="672" xlink:href="#m"/>
  <use x="407.242188" y="672" xlink:href="#d"/>
 </g>
</svg>
