<?xml version="1.0" encoding="UTF-8"?>
<svg width="700pt" height="700pt" version="1.1" viewBox="0 0 700 700" xmlns="http://www.w3.org/2000/svg" xmlns:xlink="http://www.w3.org/1999/xlink">
 <g>
  <path fill="#1c1a27" d="m350 273.62c-27.871 0-50.457 22.59-50.457 50.461 0 20.184 11.867 37.535 28.984 45.613v42.836c0 11.855 9.6133 21.469 21.469 21.469 11.855 0 21.469-9.6133 21.469-21.469v-42.836c17.121-8.0703 28.984-25.43 28.984-45.613 0.007812-27.863-22.578-50.461-50.449-50.461zm146.53-79.516v-102.17c0-38.602-31.398-70-70-70h-153.06c-38.602 0-70 31.398-70 70v102.17c-38.668 3.8633-68.969 36.59-68.969 76.266v191.04c0 42.262 34.391 76.652 76.652 76.652h277.7c42.262 0 76.652-34.391 76.652-76.652l0.003907-191.04c-0.011719-39.676-30.312-72.398-68.98-76.27zm-242.66-102.17c0-10.809 8.793-19.602 19.602-19.602h153.06c10.809 0 19.602 8.793 19.602 19.602v101.79l-192.26 0.003906zm261.23 369.48c0 14.477-11.777 26.254-26.254 26.254h-277.7c-14.477 0-26.254-11.777-26.254-26.254l0.003906-191.04c0-14.477 11.777-26.254 26.254-26.254h277.7c14.477 0 26.254 11.781 26.254 26.254z"/>
  <use x="70" y="644" xlink:href="#i"/>
  <use x="90.550781" y="644" xlink:href="#d"/>
  <use x="104.359375" y="644" xlink:href="#a"/>
  <use x="123.347656" y="644" xlink:href="#g"/>
  <use x="142.242188" y="644" xlink:href="#c"/>
  <use x="155.628906" y="644" xlink:href="#a"/>
  <use x="174.617188" y="644" xlink:href="#l"/>
  <use x="204.410156" y="644" xlink:href="#k"/>
  <use x="224.453125" y="644" xlink:href="#j"/>
  <use x="252.453125" y="644" xlink:href="#i"/>
  <use x="273" y="644" xlink:href="#f"/>
  <use x="292.933594" y="644" xlink:href="#h"/>
  <use x="302.53125" y="644" xlink:href="#b"/>
  <use x="322.464844" y="644" xlink:href="#b"/>
  <use x="342.398438" y="644" xlink:href="#g"/>
  <use x="361.292969" y="644" xlink:href="#u"/>
  <use x="379.914062" y="644" xlink:href="#h"/>
  <use x="389.511719" y="644" xlink:href="#b"/>
  <use x="409.445312" y="644" xlink:href="#t"/>
  <use x="70" y="672" xlink:href="#s"/>
  <use x="82.183594" y="672" xlink:href="#d"/>
  <use x="95.992188" y="672" xlink:href="#e"/>
  <use x="115.226562" y="672" xlink:href="#r"/>
  <use x="154.152344" y="672" xlink:href="#c"/>
  <use x="167.535156" y="672" xlink:href="#f"/>
  <use x="187.46875" y="672" xlink:href="#a"/>
  <use x="216.207031" y="672" xlink:href="#q"/>
  <use x="239.640625" y="672" xlink:href="#e"/>
  <use x="258.878906" y="672" xlink:href="#p"/>
  <use x="278.8125" y="672" xlink:href="#b"/>
  <use x="308.492188" y="672" xlink:href="#o"/>
  <use x="329.015625" y="672" xlink:href="#d"/>
  <use x="342.820312" y="672" xlink:href="#e"/>
  <use x="362.058594" y="672" xlink:href="#n"/>
  <use x="371.65625" y="672" xlink:href="#a"/>
  <use x="390.648438" y="672" xlink:href="#m"/>
  <use x="407.242188" y="672" xlink:href="#c"/>
 </g>
</svg>
